<?xml version="1.0" encoding="UTF-8"?>
<svg id="Camada_1" data-name="Camada 1" xmlns="http://www.w3.org/2000/svg" viewBox="0 0 125.31 103.9">
  <defs>
    <style>
      .cls-1 {
        fill: #fff;
        fill-rule: evenodd;
      }
    </style>
  </defs>
  <path class="cls-1" d="M106.61,37.2c-9.4,2.8-16.6,7.1-21.3,10.5-.3.2-.6.4-.8.6,0,.3-.2.7-.3,1l.7,2.2s0,.2.2.2v.3c.5,1.4,1,2.8,1.4,4.1,0,.13.07.23.2.3v.4c.6,1.8,1.2,3.4,1.8,4.9,0,.2.2.2.2.3v.4c.7,1.8,1.4,3.2,2,4.6,0,.2.2.2.2.3v.4c.6,1.2,1.2,2.3,1.8,3.3.3.6.6,1,1,1.5,0,0,.2.2.3.2,0,.13.07.27.2.4,1.4,1.9,3,2.9,4.6,3h.2s.3,0,.5-.2h1.1c2.1-.2,3.8-1.1,5-2.2h.2c1-3.7,2.3-7.6,3.8-11.7s3-7.8,4.6-11.2c1.8-3.3,3.8-6.8,6.3-10.4,1.6-2.3,3.2-4.5,4.8-6.4-4.9,0-11.4.6-18.9,2.8h0l.2.2v.2h0ZM95.21,71c-.2-.3-.4-.6-.6-.8v.2h0c-.5-.8-1-1.7-1.4-2.7h0v-.2c-.2-.3-.3-.6-.5-.9,5.7-10.6,11.8-17.8,17.2-22.6,5.6-5,10.4-7.6,13.1-8.8-2.5,1.4-6.7,4.2-11.7,10-4.9,5.5-10.5,13.9-15.9,26h0l-.2-.2h0ZM117.31,37.2c-1.4.8-2.9,1.8-4.4,3-2.6,2.1-6,5.1-9.7,9.4-3.4,4.1-7.2,9.3-10.8,15.9h0s0-.2-.2-.3c0-.2-.2-.4-.2-.6h0c-.3-.7-.6-1.5-1-2.4h0c-.2-.4-.3-.8-.5-1.1,11.9-18.3,25.7-24.4,30.8-26.2-1.1.5-2.5,1.2-3.8,2h0l-.2.2h0v.1ZM115.31,37c-1.5.7-3.1,1.6-4.8,2.6-2.8,1.8-6.2,4.2-9.8,7.8-3.4,3.4-7,7.6-10.6,13.1,0-.2-.2-.3-.2-.3-.2-.3-.2-.6-.3-.8-.2-.4-.6-1.6-1.4-3.5,3.9-4.6,7.9-8.2,11.7-11,3.9-3,7.7-5,10.7-6.5,2.9-1.4,5.9-2.4,8.6-3.2-1.1.4-2.5,1-4,1.8h.1ZM110.31,38c-3,1.4-6.7,3.5-10.6,6.4-3.8,2.7-7.8,6.3-11.6,10.8-.2-.4-.3-.8-.5-1.3-.2-.3-.2-.6-.2-.8-.2-.6-.5-1.3-.6-1.9,10.4-9.6,22.7-13.8,29.3-15.5-1.8.6-3.8,1.4-5.6,2.2h-.2v.1ZM112.61,36.1c-3.5,1-8,2.7-12.6,5.1-4.5,2.3-9.2,5.4-13.5,9.4-.2-.7-.5-1.4-.7-2.1,6.6-4.6,16-9.8,27-12.4h-.2ZM98.71,74.3v.2c-.7-.2-1.5-.9-2.3-1.8v-.2c-.2-.2-.2-.3-.4-.5,0-.2-.2-.2-.3-.4,11.6-26,24.1-34.3,28.3-36.5-1.8,1.1-5.2,3.8-9.6,10-4.3,6-9.5,15.3-14.9,29.5-.3,0-.6-.2-.8-.2h0v-.1ZM114.81,48.9c-2.3,4.1-4.1,8.2-5.6,12.4,0,.2-.2.3-.2.6s-.2.6-.3,1c-.2.3-.2.7-.4,1.1,0,.2-.2.6-.3.8,0,.2,0,.3-.2.4-.2.5-.3.9-.5,1.4,0,.2-.2.6-.3.8-1.3,2.5-2.6,4.2-3.5,5.2-.2.2-1.8,1.9-3.2,2.1,9.6-25.2,18.7-34.8,22.9-38.2-3.4,4.2-6.1,8.3-8.3,12.4h-.1Z"/>
  <path class="cls-1" d="M100.91,84.7h0c-.6.2-1.3.3-1.9.2h-.4c-8.5-.8-17.2-23.4-26.4-47.4-.9-2.2-1.8-4.5-2.6-6.8-3-8-6.3-16.6-9-23.8-.3-.7-.6-1.4-1-2.2-.2,0-.6-.2-.8-.3-1.3-.5-2.6-.9-3.9-1.4-1.9-.6-3.8-1-5.5-1.4h-.5c.3.9.6,1.5.8,1.9,3.4,8.4,7.4,18.7,12.2,29.7.2.4.3.8.6,1.2,10.5,24,22.1,51,31.6,54.7,1.5.6,3,.6,4.3,0,.5-.2,1-.4,1.5-.6.4-.6.8-1.2,1.1-1.8.2-.5.6-1,.8-1.4.2-.2.2-.6.4-.8-.4,0-.8.2-1.2.3h-.1v-.1ZM95.31,94c-1,.3-1.7.3-2.2.4h-.9c-.9,0-1.8-.2-2.7-.5-10.8-3.8-23.3-28.7-35.1-52.2-.6-1.3-1.3-2.6-1.9-3.8-6.6-13.2-13.1-28-16.9-36.3-.2-.6-.5-1.1-.6-1.6h-9.3c.2.3.4,1,.7,1.6,5,11.6,9.4,19.8,18.1,37.1,1.7,3.4,3.4,6.8,5.2,10.2,13,25.1,27.8,50,39,49.2h1.8c.7-.6,1.4-1.1,2.2-1.7.4-.3.8-.7,1.2-1,.6-.5,1.1-1,1.7-1.6h-.2v.2h-.1ZM79.21,101.7h0c-9.4-3.8-22.3-19.6-33.9-38.5-4.3-7-8.4-14.3-12.2-21.6C25.31,26.5,17.81,10.8,13.91,3.7c-.2-.4-.4-.7-.6-1.1-2.6.8-5.4,1.9-7.8,3.3,0,0-.2,0-.2.2.2.5.5.9.7,1.4,4.6,9.3,11.9,24.3,19,37,6.3,11.4,13.5,22.7,20.6,32.3,9.1,12.3,18.3,21.9,25.8,25.3h0c1.3.6,2.6,1.2,3.8,1.8h.4c1.4,0,2.8-.3,4.2-.6.6-.2,1.3-.3,1.9-.5-.8-.3-1.7-.6-2.5-.9h.2l-.2-.2h0ZM70.81,102.7c-.6-.3-1.3-.7-1.8-1h0c-7-3.9-14.9-12.2-23-22.8-6.8-9-13.9-19.7-20.5-30.8-7.4-12.4-15.7-29.8-20.8-39.8-.2-.5-.6-1-.8-1.4,0,0-.2,0-.2.2,0,0-1.8,1.1-3.4,4.6H.31v.2c-2.5,5.8,11,28.8,11,28.8,7.4,12.6,9.4,16.6,14.9,24.3,1.9,2.6,3.8,5,4.9,6.5,2.6,3.3,5,6.4,7.4,9.3s4.6,5.4,6.6,7.8c1.8,1.9,4.5,4.9,8.2,7.7,3.7,2.8,8.2,5.5,13.8,6.7.5,0,1.3.3,2.2.5h0c2.2.4,3,.4,3.4.4h.3c-.6-.3-1.4-.6-2.2-1h-.2l.2-.2h0ZM87.21,99.1c-1,0-5.3-.6-10.2-4.9-10.6-9.2-23.7-35.3-23.7-35.3-1.2-2.4-2.6-5-4.3-8.5h0c-1.6-3-3.5-6.8-6-11.6-6.6-12.7-11.8-22.6-18.4-36.7-.2-.6-.6-1.2-.8-1.8-.3,0-.7,0-1,.2h-3.3c-1.6.3-3.1.7-4.6,1.1.2.4.5.7.7,1.1,3.6,7.6,10.6,21.9,18.6,37,3.5,6.8,7.5,13.9,11.6,20.7,12.2,20.2,25.8,37.9,35.1,40.6q1.87.53,0,0c.8.2,1.6.5,2.5.6.4-.2.9-.3,1.3-.5,1.5-.6,3-1.4,4.3-2.3,0,0,.2,0,.2-.2h-2.1v.5h.1ZM97.41,90.2c-.7.2-1.2.2-1.3.2-.8,0-1.6-.2-2.4-.5-9.9-3.8-21.7-30.5-32.5-54.7,0,0,0-.2-.2-.3-5.6-12.4-10-23.7-13.3-31.8-.2-.6-.5-1.2-.6-1.8-1.6-.3-3.3-.6-5-.8C40.71.3,39.21.2,37.91,0h-1c.2.5.6,1.3.8,1.7,3.8,8.7,10.1,22.7,15.9,34.5,0,0,.7,1.7,2.1,4.4,6.1,12.9,24.2,49.5,34.3,52.5,1.9.6,3.6.4,3.6.4,1.1-.2,2.2-.5,2.2-.5.4-.2.7-.2,1-.4.8-1,1.6-1.9,2.3-2.9-.6.2-1.1.4-1.4.5h-.3ZM106.91,67.4c-1.3,2.5-2.6,4.2-3.5,5.2-.2.2-1.8,1.9-3.2,2.1h-.7c-.3,0-.6-.2-.8-.2-.5-.2-.8-.4-.9-.5,0,0-.6-.4-1.4-1.4-.2-.2-.2-.3-.4-.5,0-.2-.2-.2-.3-.4,0,0-.2-.2-.2-.3,0,0-.2-.2-.2-.3-.2-.3-.4-.6-.6-.8-.5-.7-.8-1.4-1.1-2s-.2-.6-.3-.6v-.2c-.2-.3-.3-.6-.5-.9,0,0,0-.2-.2-.2,0,0,0-.2-.2-.4h0c0-.13-.07-.27-.2-.4,0-.2-.2-.4-.2-.6-.3-.8-.7-1.6-1-2.3h0c-.2-.4-.3-.8-.5-1.1-.2-.3-.2-.6-.3-.7,0-.2-.2-.3-.2-.3-.2-.3-.2-.6-.3-.8-.2-.4-.6-1.6-1.4-3.5,0-.2-.2-.5-.2-.6-.2-.4-.3-.8-.5-1.3-.2-.3-.2-.6-.2-.8-.2-.6-.5-1.3-.6-1.9,0-.2-.2-.4-.2-.6-.2-.7-.5-1.4-.7-2.1h0c0-.2-.2-.5-.2-.7v-.2c-.2-.6-.4-1.2-.7-2.2-.3-.9-.5-1.5-.6-1.6-.6-1.7-1.8-5.5-2.4-7-2.3-6.8-2.1-5.6-2.6-7.3v-.2c-.5-1.5-3.2-10.7-4.1-12.6h0c-.6-1.3-1.8-3-3.4-4.7-1.3-1.3-2.8-2.6-5.3-4-1.8-1-3.6-1.9-5.3-2.7.2.7.6,1.4.8,2.2,2.6,7,5.6,15.2,8.6,23,.9,2.3,1.8,4.6,2.6,6.7,9.1,23.8,17.8,46.1,25.8,46.8.9,0,1.8,0,2.8-.4.4-.2.8-.3,1.2-.4.8-1.7,1.5-3.4,2.2-5.4.4-1.3.8-2.6,1.1-3.9.2-.6.2-1.2.4-1.8.3-1.7.6-3.4.6-5h-.2l-.3-.2h0Z"/>
</svg>